<?xml version="1.0" encoding="UTF-8" standalone="no"?>
<svg
   xmlns:dc="http://purl.org/dc/elements/1.1/"
   xmlns:cc="http://creativecommons.org/ns#"
   xmlns:rdf="http://www.w3.org/1999/02/22-rdf-syntax-ns#"
   xmlns:svg="http://www.w3.org/2000/svg"
   xmlns="http://www.w3.org/2000/svg"
   height="138.90739"
   width="139.14351"
   xml:space="preserve"
   viewBox="0 0 139.14351 138.9074"
   y="0px"
   x="0px"
   id="Layer_1"
   version="1.1"><metadata
   id="metadata1104"><rdf:RDF><cc:Work
       rdf:about=""><dc:format>image/svg+xml</dc:format><dc:type
         rdf:resource="http://purl.org/dc/dcmitype/StillImage" /><dc:title></dc:title></cc:Work></rdf:RDF></metadata><defs
   id="defs1102" />
<style
   id="style1089"
   type="text/css">
	.st0{fill:none;}
</style>
<path
   style="fill:#ffffff;fill-opacity:1;stroke:#ffffff;stroke-opacity:1"
   clip-path="none"
   d="M 138.43675,88.253699 88.436747,138.1537 c -0.2,0.2 -0.5,0.3 -0.7,0.2 l -68.3,-18.3 c -0.3,-0.1 -0.5,-0.3 -0.5,-0.5 L 0.5367468,51.353699 c -0.1,-0.3 0,-0.5 0.2,-0.7 L 50.736747,0.75369922 c 0.2,-0.2 0.5,-0.3 0.7,-0.2 L 119.73675,18.853699 c 0.3,0.1 0.5,0.3 0.5,0.5 l 18.3,68.2 c 0.2,0.3 0.1,0.5 -0.1,0.7 z m -67.000003,-54.3 -67.1000002,17.9 c -0.1,0 -0.2,0.2 -0.1,0.3 L 53.336747,101.1537 c 0.1,0.1 0.3,0.1 0.3,-0.1 l 18,-67.000001 c 0.1,0 -0.1,-0.2 -0.2,-0.1 z"
   id="path1091" /><g
   transform="translate(-26.963253,-33.746301)"
   id="g1113">
		<rect
   style="fill:none"
   y="0"
   x="0"
   id="rect1111"
   height="206.7"
   width="193.2"
   class="st0" />
	</g>
</svg>